<svg width="54" height="51" viewBox="0 0 54 51" fill="none" xmlns="http://www.w3.org/2000/svg">
<g clip-path="url(#clip0_133_23)">
<path opacity="0.998" fill-rule="evenodd" clip-rule="evenodd" d="M11.407 -0.0352783C20.593 -0.0352783 29.779 -0.0352783 38.9651 -0.0352783C42.3284 0.0253196 45.1773 1.27151 47.5116 3.70331C49.1273 5.6318 50.0343 7.86556 50.2325 10.4046C50.2976 11.5371 50.3557 12.6657 50.407 13.7904C50.3377 14.3889 50.3145 15.0003 50.3372 15.6245C45.5379 14.9313 40.7472 14.1788 35.9651 13.3672C33.6953 10.6554 30.8116 9.02121 27.3139 8.46472C24.8826 8.12634 22.5105 8.36145 20.1977 9.17012C19.2287 9.56034 18.2868 9.99529 17.3721 10.4751C11.7725 9.60422 6.17948 8.71069 0.593018 7.7946C1.74467 4.12606 4.14002 1.71597 7.77906 0.564307C8.97851 0.241785 10.1878 0.0419233 11.407 -0.0352783Z" fill="#E877D9"/>
<path opacity="0.999" fill-rule="evenodd" clip-rule="evenodd" d="M0.592921 7.79456C6.17938 8.71065 11.7724 9.60417 17.372 10.4751C18.2867 9.99524 19.2286 9.5603 20.1976 9.17007C22.5104 8.36141 24.8825 8.1263 27.3139 8.46468C30.8115 9.02117 33.6952 10.6554 35.965 13.3672C40.7471 14.1788 45.5378 14.9312 50.3371 15.6244C50.3371 16.3063 50.3371 16.9882 50.3371 17.6701C46.382 17.0608 42.4285 16.4377 38.4766 15.8008C38.1515 15.7419 37.8259 15.7184 37.4999 15.7302C38.9135 18.6348 39.2972 21.6798 38.6511 24.8651C38.2466 27.0327 37.5372 29.0901 36.5232 31.0373C35.2285 30.9985 33.9495 31.1161 32.6859 31.39C30.4879 32.1077 29.1042 33.6008 28.5348 35.8692C28.2434 37.1693 28.0922 38.486 28.0813 39.8195C35.5015 38.6764 42.9201 37.5242 50.3371 36.363C50.3184 36.4758 50.3417 36.5698 50.4069 36.6452C50.3552 37.2315 50.332 37.8194 50.3371 38.4087C34.1945 40.9094 18.0549 43.4254 1.9185 45.9564C1.52093 45.3878 1.19534 44.7764 0.941758 44.1224C8.03522 43.025 15.1282 41.9199 22.2208 40.807C22.2516 39.4597 22.1702 38.1194 21.9766 36.7863C21.7297 35.0992 20.9972 33.6767 19.779 32.5186C18.9383 31.8469 17.9848 31.4237 16.9185 31.2489C15.8752 31.1275 14.8287 31.0453 13.779 31.002C11.9951 27.6255 11.216 24.028 11.4418 20.2095C11.876 17.0859 13.1899 14.4172 15.3836 12.2033C10.3191 11.3694 5.24931 10.5582 0.174316 9.76966C0.235049 9.08585 0.374584 8.42751 0.592921 7.79456Z" fill="#FDFEFD"/>
<path opacity="0.999" fill-rule="evenodd" clip-rule="evenodd" d="M0.17439 9.76965C5.24939 10.5582 10.3191 11.3694 15.3837 12.2033C13.19 14.4172 11.8761 17.0859 11.4418 20.2095C11.2161 24.028 11.9952 27.6255 13.779 31.002C14.8288 31.0453 15.8753 31.1275 16.9186 31.2489C17.9848 31.4237 18.9383 31.8469 19.779 32.5186C20.9973 33.6767 21.7298 35.0992 21.9767 36.7863C22.1703 38.1194 22.2517 39.4597 22.2209 40.807C15.1283 41.9199 8.0353 43.025 0.941832 44.1224C0.364973 42.5931 0.039392 41.0178 -0.0349121 39.3962C-0.0349121 30.085 -0.0349121 20.7738 -0.0349121 11.4626C0.021554 10.9036 0.0913216 10.3393 0.17439 9.76965Z" fill="#C751B7"/>
<path fill-rule="evenodd" clip-rule="evenodd" d="M23.6164 10.334C26.8281 10.0406 29.7583 10.8048 32.4071 12.6265C36.1814 15.7028 37.6117 19.6647 36.6978 24.5124C36.4103 26.0779 35.9336 27.5828 35.2676 29.0269C30.0344 29.1572 27.0461 31.8377 26.3024 37.0684C26.1947 38.1004 26.1365 39.135 26.128 40.1722C25.4781 40.2754 24.827 40.3694 24.1745 40.4543C24.2181 38.4639 23.9739 36.5123 23.442 34.5996C22.4351 31.7474 20.47 29.9957 17.5466 29.3444C16.71 29.2308 15.8728 29.125 15.035 29.0269C13.6832 26.1402 13.1599 23.107 13.4652 19.9274C14.4354 15.3019 17.1447 12.2569 21.5931 10.7925C22.2716 10.6155 22.9461 10.4627 23.6164 10.334Z" fill="#872084"/>
<path fill-rule="evenodd" clip-rule="evenodd" d="M50.4069 13.7904C50.4069 21.4087 50.4069 29.0269 50.4069 36.6452C50.3417 36.5698 50.3184 36.4758 50.3371 36.363C42.9201 37.5242 35.5015 38.6764 28.0813 39.8194C28.0922 38.486 28.2434 37.1693 28.5348 35.8692C29.1042 33.6008 30.4879 32.1077 32.6859 31.39C33.9495 31.1161 35.2286 30.9985 36.5232 31.0373C37.5372 29.0901 38.2466 27.0327 38.6511 24.8651C39.2973 21.6798 38.9135 18.6348 37.4999 15.7302C37.8259 15.7184 38.1515 15.7419 38.4766 15.8008C42.4285 16.4377 46.382 17.0608 50.3371 17.6701C50.3371 16.9882 50.3371 16.3063 50.3371 15.6244C50.3144 15.0002 50.3376 14.3889 50.4069 13.7904Z" fill="#C751B7"/>
<path opacity="0.998" fill-rule="evenodd" clip-rule="evenodd" d="M50.3373 38.4087C50.4691 41.357 49.7133 44.0375 48.0699 46.4502C46.2487 48.8002 43.865 50.1992 40.9187 50.6473C40.1778 50.754 39.4337 50.8245 38.6861 50.8589C29.6629 50.9059 20.6396 50.9059 11.6164 50.8589C8.39947 50.8571 5.60878 49.7754 3.24428 47.6141C2.76002 47.0917 2.31815 46.5391 1.9187 45.9564C18.0551 43.4254 34.1947 40.9095 50.3373 38.4087Z" fill="#C751B7"/>
</g>
<defs>
<clipPath id="clip0_133_23">
<rect width="54" height="51" fill="white"/>
</clipPath>
</defs>
</svg>
