<svg width="127" height="127" viewBox="0 0 127 127" fill="none" xmlns="http://www.w3.org/2000/svg">
<g clip-path="url(#clip0_42_15)">
<path opacity="0.944" fill-rule="evenodd" clip-rule="evenodd" d="M23.0684 -0.248047C28.0293 -0.248047 32.9902 -0.248047 37.9512 -0.248047C46.8371 2.46739 50.227 8.4205 48.1211 17.6113C46.5167 20.8699 44.2017 23.5158 41.1758 25.5488C41.084 29.1438 40.8359 32.6992 40.4316 36.2148C44.2715 35.9413 47 37.5123 48.6172 40.9277C48.8649 43.5684 48.9476 46.2143 48.8652 48.8652C51.6766 48.8652 54.4875 48.8652 57.2988 48.8652C56.7993 53.4357 56.138 57.9829 55.3145 62.5078C56.6172 64.5289 57.1133 66.7613 56.8027 69.2051C60.9402 69.2874 65.0741 69.2051 69.2051 68.957C68.9089 68.4302 68.7437 67.8517 68.709 67.2207C69.1168 65.342 69.6129 63.5228 70.1973 61.7637C69.5146 57.4814 69.0185 53.1822 68.709 48.8652C71.5203 48.8652 74.3312 48.8652 77.1426 48.8652C76.9362 45.6643 77.1842 42.5224 77.8867 39.4395C79.6642 37.0529 82.0618 36.0608 85.0801 36.4629C85.1624 32.6559 85.0801 28.8525 84.832 25.0527C80.7025 19.5059 80.0413 13.5528 82.8477 7.19336C85.3733 3.16672 88.9283 0.686251 93.5137 -0.248047C96.4902 -0.248047 99.4668 -0.248047 102.443 -0.248047C116.268 2.6777 122.717 11.194 121.791 25.3008C126.306 28.8545 127.463 33.3193 125.264 38.6953C125.297 40.1619 125.794 41.4021 126.752 42.416C126.752 43.0775 126.752 43.7389 126.752 44.4004C124.218 45.6664 121.572 46.6586 118.814 47.377C114.932 47.1741 112.12 45.3552 110.381 41.9199C109.401 44.4419 110.228 46.0128 112.861 46.6328C113.854 47.625 114.846 48.6172 115.838 49.6094C117.894 48.9417 120.044 48.7763 122.287 49.1133C124.236 49.9036 125.476 51.3095 126.008 53.3301C126.339 72.5125 126.339 91.6945 126.008 110.877C124.687 116.497 121.296 120.218 115.838 122.039C106.925 122.584 97.9954 122.998 89.0488 123.279C88.0829 124.908 86.7598 126.066 85.0801 126.752C70.3625 126.752 55.6453 126.752 40.9277 126.752C38.9421 126.177 37.4538 124.937 36.4629 123.031C28.5254 122.866 20.5879 122.7 12.6504 122.535C6.09228 121.347 1.79279 117.626 -0.248047 111.373C-0.248047 91.6945 -0.248047 72.0164 -0.248047 52.3379C2.32353 48.7944 5.63081 47.9676 9.67383 49.8574C11.3364 48.1964 13.1555 46.7081 15.1309 45.3926C15.7001 44.269 15.7828 43.1114 15.3789 41.9199C3.07747 33.393 0.431639 22.479 7.44141 9.17773C11.4031 3.93245 16.612 0.790516 23.0684 -0.248047ZM25.0527 4.2168C28.8597 4.13427 32.6631 4.21695 36.4629 4.46484C43.8548 6.5981 45.9219 11.1456 42.6641 18.1074C42.0853 18.6862 41.5065 19.265 40.9277 19.8438C40.3647 20.2155 39.8686 20.1328 39.4395 19.5957C38.563 17.9736 37.4055 16.5679 35.9668 15.3789C36.4247 14.3665 36.5901 13.2916 36.4629 12.1543C34.9746 12.1543 33.4863 12.1543 31.998 12.1543C31.9735 13.4437 31.4774 14.5186 30.5098 15.3789C26.7201 15.8935 22.9168 16.3895 19.0996 16.8672C17.3049 19.0353 15.2378 20.937 12.8984 22.5723C10.785 26.6449 11.6118 29.9522 15.3789 32.4941C15.7828 33.6857 15.7001 34.8432 15.1309 35.9668C7.18661 28.6232 6.11178 20.3549 11.9062 11.1621C15.401 7.05936 19.7832 4.74427 25.0527 4.2168ZM95.002 4.2168C107.936 3.35596 115.543 9.2264 117.822 21.8281C117.418 27.8449 114.855 32.7231 110.133 36.4629C109.727 35.1099 109.809 33.7871 110.381 32.4941C113.627 30.5674 114.701 27.7561 113.605 24.0605C111.219 21.838 108.986 19.4403 106.908 16.8672C103.475 16.2625 100.002 15.9318 96.4902 15.875C94.9563 15.169 93.9641 14.0114 93.5137 12.4023C92.0343 12.1553 90.546 12.0726 89.0488 12.1543C89.3986 13.5157 89.3986 14.8387 89.0488 16.123C88.077 16.7422 87.3328 17.5691 86.8164 18.6035C84.5552 11.0154 87.2837 6.21987 95.002 4.2168ZM32.9902 19.0996C34.3452 19.8792 35.2547 21.0368 35.7188 22.5723C36.0495 27.3679 36.0495 32.1634 35.7188 36.959C34.5928 39.2435 32.7738 40.5664 30.2617 40.9277C28.5646 40.4112 26.911 39.7497 25.3008 38.9434C24.3148 39.9176 23.5707 41.0751 23.0684 42.416C24.453 43.5247 25.9413 44.5169 27.5332 45.3926C27.1794 46.5216 26.9313 47.6792 26.7891 48.8652C25.0941 47.3963 23.1924 46.2387 21.084 45.3926C20.5885 39.7799 20.4231 34.1575 20.5879 28.5254C18.584 28.9423 17.0957 28.2808 16.123 26.541C17.1712 24.9429 18.6595 24.2815 20.5879 24.5566C20.367 23.1355 20.6978 21.8953 21.5801 20.8359C24.722 20.6706 27.8639 20.5052 31.0059 20.3398C31.7829 20.0381 32.4444 19.6247 32.9902 19.0996ZM92.5215 19.0996C93.2071 19.7448 94.0336 20.1582 95.002 20.3398C97.9785 20.5052 100.955 20.6706 103.932 20.8359C104.386 21.0216 104.8 21.2696 105.172 21.5801C105.417 22.5587 105.5 23.5509 105.42 24.5566C107.338 24.1968 108.661 24.8583 109.389 26.541C108.661 28.2237 107.338 28.8852 105.42 28.5254C105.585 34.1575 105.419 39.7799 104.924 45.3926C102.882 45.9995 101.063 46.9917 99.4668 48.3691C98.5709 47.2792 98.4057 46.1217 98.9707 44.8965C100.374 44.278 101.697 43.5339 102.939 42.6641C102.291 41.2774 101.464 40.0372 100.459 38.9434C95.8508 41.8628 92.2953 40.8706 89.793 35.9668C89.4621 31.8327 89.4621 27.6986 89.793 23.5645C90.2082 21.75 91.1175 20.2618 92.5215 19.0996ZM120.303 30.5098C121.166 31.2603 121.663 32.2524 121.791 33.4863C120.531 35.9517 120.201 38.5148 120.799 41.1758C118.768 42.943 116.866 42.6949 115.094 40.4316C114.763 39.7702 114.763 39.1087 115.094 38.4473C117.559 36.2392 119.296 33.5933 120.303 30.5098ZM38.4473 40.9277C39.9447 40.8461 41.433 40.9287 42.9121 41.1758C43.313 41.3284 43.6437 41.5764 43.9043 41.9199C44.3724 44.202 44.5377 46.5171 44.4004 48.8652C41.5892 48.8652 38.778 48.8652 35.9668 48.8652C36.4629 52.834 36.959 56.8027 37.4551 60.7715C36.722 60.9015 36.0605 60.7363 35.4707 60.2754C34.1897 57.8778 32.7841 55.5625 31.2539 53.3301C31.243 50.5078 31.4911 47.6965 31.998 44.8965C34.871 44.7024 37.0207 43.3794 38.4473 40.9277ZM83.0957 40.9277C85.595 40.4059 87.5794 41.1501 89.0488 43.1602C90.5674 44.1696 92.2213 44.7484 94.0098 44.8965C94.0629 47.419 94.3937 49.8996 95.002 52.3379C93.5965 54.8184 92.1906 57.2988 90.7852 59.7793C90.0688 60.6003 89.159 60.9312 88.0566 60.7715C88.7179 56.8027 89.3797 52.834 90.041 48.8652C87.2297 48.8652 84.4188 48.8652 81.6074 48.8652C81.5251 46.5443 81.6079 44.2291 81.8555 41.9199C82.3491 41.6392 82.7623 41.3084 83.0957 40.9277ZM17.6113 49.3613C22.2307 50.5088 25.7033 53.1545 28.0293 57.2988C26.2135 59.0307 24.3118 60.6842 22.3242 62.2598C20.909 60.7333 20.3302 58.9141 20.5879 56.8027C18.9343 56.8027 17.2806 56.8027 15.627 56.8027C15.8174 58.8298 16.2308 60.8141 16.8672 62.7559C18.2331 64.9922 19.7214 67.1418 21.332 69.2051C24.0497 72.6718 27.605 74.1601 31.998 73.6699C31.998 74.8273 31.998 75.9852 31.998 77.1426C25.3835 77.1426 18.7689 77.1426 12.1543 77.1426C12.0716 70.0301 12.1543 62.9191 12.4023 55.8105C13.1631 52.8226 14.8994 50.673 17.6113 49.3613ZM106.908 49.3613C110.109 49.852 112.176 51.6706 113.109 54.8184C113.357 62.2578 113.44 69.6992 113.357 77.1426C106.743 77.1426 100.128 77.1426 93.5137 77.1426C93.5137 75.9852 93.5137 74.8273 93.5137 73.6699C97.4566 74.037 100.847 72.8796 103.684 70.1973C105.696 67.688 107.515 65.0419 109.141 62.2598C109.69 60.4808 109.938 58.6616 109.885 56.8027C108.396 56.8027 106.908 56.8027 105.42 56.8027C105.535 58.9424 104.873 60.7611 103.436 62.2598C101.306 60.7928 99.3219 59.1393 97.4824 57.2988C99.7917 53.5925 102.934 50.9468 106.908 49.3613ZM5.20898 53.3301C6.1468 53.2294 6.89094 53.5598 7.44141 54.3223C7.60675 64.4093 7.77215 74.4969 7.9375 84.584C9.34308 89.2969 12.4023 92.3563 17.1152 93.7617C23.3969 94.0098 29.6807 94.0926 35.9668 94.0098C35.9668 102.112 35.9668 110.216 35.9668 118.318C27.6746 118.529 19.4063 118.281 11.1621 117.574C8.29885 116.529 6.23178 114.628 4.96094 111.869C4.39084 102.061 4.14279 92.2218 4.2168 82.3516C4.29948 73.0086 4.38216 63.6652 4.46484 54.3223C4.82064 54.0524 5.06869 53.7215 5.20898 53.3301ZM41.4238 53.3301C44.8965 53.3301 48.3691 53.3301 51.8418 53.3301C51.8096 55.7877 51.4787 58.1853 50.8496 60.5234C48.0433 60.771 45.232 60.8538 42.416 60.7715C41.924 58.3148 41.5933 55.8344 41.4238 53.3301ZM73.6699 53.3301C77.3078 53.3301 80.9461 53.3301 84.584 53.3301C84.1608 55.7957 83.8299 58.2761 83.5918 60.7715C80.6152 60.7715 77.6387 60.7715 74.6621 60.7715C74.424 58.2761 74.0931 55.7957 73.6699 53.3301ZM119.311 53.3301C120.248 53.2294 120.992 53.5598 121.543 54.3223C122.027 73.3623 121.861 92.3791 121.047 111.373C119.6 114.309 117.367 116.376 114.35 117.574C106.106 118.281 97.8371 118.529 89.5449 118.318C89.5449 110.216 89.5449 102.112 89.5449 94.0098C95.8309 94.0926 102.115 94.0098 108.396 93.7617C114.036 92.4208 117.26 88.8658 118.07 83.0957C118.236 73.5047 118.401 63.9132 118.566 54.3223C118.922 54.0524 119.17 53.7215 119.311 53.3301ZM30.0137 61.7637C31.0647 62.4041 31.8915 63.314 32.4941 64.4922C33.2814 64.9198 34.1082 65.2507 34.9746 65.4844C40.597 65.6496 46.2194 65.8153 51.8418 65.9805C52.5537 67.1051 52.3885 68.0973 51.3457 68.957C43.9043 69.2879 36.4629 69.2879 29.0215 68.957C27.5691 68.4902 26.4115 67.6632 25.5488 66.4766C27.0224 64.9084 28.5107 63.3373 30.0137 61.7637ZM95.002 61.7637C96.968 63.0679 98.7867 64.5562 100.459 66.2285C99.6697 67.5957 98.5123 68.5051 96.9863 68.957C89.5449 69.2879 82.1035 69.2879 74.6621 68.957C73.0751 68.1241 72.9094 67.1319 74.166 65.9805C79.623 65.8153 85.0801 65.6496 90.5371 65.4844C92.6976 65.0612 94.1859 63.821 95.002 61.7637ZM36.4629 73.6699C53.9914 73.6699 71.5203 73.6699 89.0488 73.6699C89.0488 74.8273 89.0488 75.9852 89.0488 77.1426C71.5203 77.1426 53.9914 77.1426 36.4629 77.1426C36.4629 75.9852 36.4629 74.8273 36.4629 73.6699ZM12.1543 81.6074C20.9202 81.5246 29.6845 81.6074 38.4473 81.8555C43.3282 82.6006 46.5528 85.3291 48.1211 90.041C48.3691 97.977 48.4518 105.915 48.3691 113.854C45.8887 113.854 43.4082 113.854 40.9277 113.854C40.8451 106.741 40.9278 99.63 41.1758 92.5215C42.2507 91.4464 43.3255 90.3719 44.4004 89.2969C43.3175 88.1311 42.1599 87.056 40.9277 86.0723C39.6956 87.056 38.538 88.1311 37.4551 89.2969C31.1712 89.6278 24.8874 89.6278 18.6035 89.2969C14.7701 88.1697 12.6203 85.6064 12.1543 81.6074ZM48.8652 82.1035C51.249 81.6139 53.7294 81.4482 56.3066 81.6074C56.3895 91.0347 56.3066 100.46 56.0586 109.885C55.4767 111.788 54.4845 113.442 53.082 114.846C52.9168 106.247 52.7511 97.6476 52.5859 89.0488C51.9792 86.3446 50.739 84.0294 48.8652 82.1035ZM61.2676 81.6074C62.425 81.6074 63.5828 81.6074 64.7402 81.6074C64.6574 91.0347 64.7402 100.46 64.9883 109.885C65.6069 113.106 67.0123 115.917 69.2051 118.318C68.7621 119.6 68.5969 120.923 68.709 122.287C64.7402 122.287 60.7715 122.287 56.8027 122.287C56.7209 120.625 56.8037 118.972 57.0508 117.326C59.3045 114.968 60.6271 112.157 61.0195 108.893C61.2676 99.7992 61.3504 90.7038 61.2676 81.6074ZM69.2051 81.6074C71.8562 81.5251 74.5019 81.6079 77.1426 81.8555C74.7455 84.2526 73.34 87.1463 72.9258 90.5371C72.7606 98.4746 72.5949 106.412 72.4297 114.35C70.7931 112.897 69.8009 111.077 69.4531 108.893C69.2051 99.7992 69.1222 90.7038 69.2051 81.6074ZM87.0645 81.6074C88.0403 81.4889 88.9501 81.6541 89.793 82.1035C90.6909 84.5488 91.435 87.0292 92.0254 89.5449C90.6924 89.6263 89.3693 89.5434 88.0566 89.2969C86.9737 88.1311 85.8163 87.056 84.584 86.0723C83.4266 86.8993 82.4344 87.8914 81.6074 89.0488C82.5912 90.2811 83.6662 91.4385 84.832 92.5215C85.0801 99.63 85.1629 106.741 85.0801 113.854C82.5996 113.854 80.1191 113.854 77.6387 113.854C77.5558 105.749 77.6387 97.6461 77.8867 89.5449C79.3651 85.0037 82.424 82.358 87.0645 81.6074ZM94.5059 82.1035C100.702 81.6099 106.986 81.4442 113.357 81.6074C113.324 84.897 111.836 87.2946 108.893 88.8008C104.966 89.4958 100.997 89.7439 96.9863 89.5449C96.4431 86.9236 95.6166 84.4431 94.5059 82.1035ZM40.9277 118.318C44.074 118.236 47.2159 118.318 50.3535 118.566C52.6797 119.559 52.8449 120.716 50.8496 122.039C48.0384 122.37 45.2272 122.37 42.416 122.039C41.9615 121.854 41.548 121.605 41.1758 121.295C40.93 120.316 40.8473 119.324 40.9277 118.318ZM75.6543 118.318C78.7961 118.318 81.9383 118.318 85.0801 118.318C85.2071 119.455 85.0419 120.53 84.584 121.543C81.3311 122.33 78.0236 122.495 74.6621 122.039C74.0008 121.708 73.5047 121.212 73.1738 120.551C73.8297 119.571 74.6562 118.826 75.6543 118.318Z" fill="#B03D9B"/>
</g>
<defs>
<clipPath id="clip0_42_15">
<rect width="127" height="127" fill="white"/>
</clipPath>
</defs>
</svg>
