<svg width="126" height="127" viewBox="0 0 126 127" fill="none" xmlns="http://www.w3.org/2000/svg">
<g clip-path="url(#clip0_42_18)">
<path opacity="0.952" fill-rule="evenodd" clip-rule="evenodd" d="M21.9024 -0.248047C49.1367 -0.248047 76.3713 -0.248047 103.605 -0.248047C103.845 0.234873 104.091 0.730964 104.344 1.24023C104.672 42.5814 104.672 83.9227 104.344 125.264C104.091 125.773 103.845 126.269 103.605 126.752C102.457 126.752 101.308 126.752 100.16 126.752C87.7142 115.367 75.2451 103.956 62.7539 92.5215C50.2627 103.956 37.7939 115.367 25.3477 126.752C24.1992 126.752 23.0508 126.752 21.9024 126.752C21.6628 126.269 21.4167 125.773 21.1641 125.264C20.8359 83.9227 20.8359 42.5814 21.1641 1.24023C21.4167 0.730964 21.6628 0.234873 21.9024 -0.248047ZM26.8242 5.20898C50.7775 5.20898 74.7303 5.20898 98.6836 5.20898C98.7658 42.5818 98.6836 79.9539 98.4375 117.326C87.1994 106.991 75.9608 96.6554 64.7227 86.3203C63.41 85.3281 62.0978 85.3281 60.7852 86.3203C49.547 96.6554 38.3086 106.991 27.0703 117.326C26.8242 79.9539 26.7422 42.5818 26.8242 5.20898Z" fill="#B33D9F"/>
<path opacity="0.957" d="M53.4349 36.1787L54.5846 35.9319L55.1276 34.8888C57.6127 30.1155 60.0411 25.3071 62.4125 20.4637C62.4895 20.422 62.566 20.3796 62.6418 20.3365C62.8929 20.474 63.1163 20.6636 63.3236 20.9165C65.6153 25.6125 67.9679 30.271 70.3818 34.8919L70.9351 35.9512L72.107 36.1858C77.2093 37.207 82.3477 38.0426 87.5225 38.6927C87.6713 38.7143 87.789 38.7381 87.8805 38.7607C87.8541 38.9586 87.7988 39.2125 87.7045 39.5337C85.2229 41.8447 82.9627 44.2537 80.7299 46.6335C79.4779 47.9681 78.2344 49.2935 76.9653 50.5872L76.1333 51.4354L76.2655 52.6161C76.8881 58.1748 77.7699 63.7169 78.9114 69.2426C78.868 69.426 78.823 69.5405 78.7903 69.6072C78.7094 69.6106 78.5723 69.6043 78.361 69.5625C73.4889 67.1826 68.6911 64.6811 63.9675 62.0584L62.772 61.3947L61.5682 62.0432L47.5737 69.5824C47.3967 69.6155 47.2361 69.6209 47.0823 69.5965C46.9972 68.6362 47.0502 67.678 47.2412 66.7152L47.2434 66.7041L47.2455 66.6931C48.1346 61.9919 48.8018 57.2853 49.2467 52.5729L49.3661 51.3091L48.4161 50.4671C44.5504 47.0404 40.8195 43.4494 37.2235 39.6939C37.1919 39.4487 37.2026 39.2287 37.253 39.0223C42.6943 38.2743 48.0883 37.3265 53.4349 36.1787ZM78.7426 69.6869C78.7425 69.6867 78.744 69.6848 78.7473 69.6813C78.7443 69.6852 78.7427 69.687 78.7426 69.6869ZM78.8703 69.5985C78.8802 69.5946 78.8857 69.5935 78.8859 69.5939C78.8862 69.5943 78.8812 69.5962 78.8703 69.5985Z" stroke="#B03E9B" stroke-width="5"/>
</g>
<defs>
<clipPath id="clip0_42_18">
<rect width="126" height="127" fill="white"/>
</clipPath>
</defs>
</svg>
