<svg width="64" height="90" viewBox="0 0 64 90" fill="none" xmlns="http://www.w3.org/2000/svg">
<g clip-path="url(#clip0_212_13)">
<path d="M37.5 74C48.4093 74.8062 57 77.761 57 81.2826C57 85.4247 45.8071 88.7826 32 88.7826C18.1929 88.7826 7 85.4247 7 81.2826C7 77.761 15.0907 74.8062 26 74" stroke="white" stroke-width="2"/>
<path d="M62.8 29.9943C62.8 33.8872 61.0849 38.7566 58.3441 44.0193C55.6178 49.2542 51.9406 54.7598 48.153 59.8922C44.3682 65.021 40.4883 69.7567 37.3666 73.4509C35.9052 75.1804 34.5957 76.6978 33.5415 77.9193C32.8582 78.7111 32.2821 79.3786 31.8416 79.8989C28.8317 76.7295 21.659 68.7231 14.9776 59.5108C11.3043 54.4461 7.79599 49.0392 5.20989 43.8871C2.61176 38.711 1 33.899 1 29.9943C1 14.0383 14.7755 1 31.9 1C49.0245 1 62.8 14.0383 62.8 29.9943Z" stroke="white" stroke-width="2"/>
<path d="M24.14 37.44H24.02C21.92 37.44 19.76 36.34 18.82 34.56L19.64 32.7L19.8 32.76L19.78 33.06C19.78 35.46 21.8 36.86 23.82 36.86H24.06C25.94 36.74 27.74 35.38 27.8 32.42V32.32C27.8 28.26 22.84 28.06 19.48 27.1L20.52 21.8H26.4C27.54 21.76 27.6 21.28 27.6 21.28H27.84L28.38 24.26L28.1 24.34C27.54 23.3 26.98 23.14 24.64 23.14H21.12L20.58 25.8C24.32 27.06 29.04 27.08 29.14 32.18V32.32C29.14 34.86 27.58 37.38 24.14 37.44ZM32.1322 37.1C31.5122 37.1 30.9922 36.6 30.9922 35.98C30.9922 35.34 31.5122 34.84 32.1322 34.84C32.7522 34.84 33.2722 35.34 33.2722 35.98C33.2722 36.6 32.7522 37.1 32.1322 37.1ZM40.5295 37.44C37.3695 37.44 34.8095 33.82 34.8095 29.36C34.8095 24.9 37.3695 21.28 40.5295 21.28C43.6895 21.28 46.2495 24.9 46.2495 29.36C46.2495 33.82 43.6895 37.44 40.5295 37.44ZM40.5295 37C42.9695 37 44.9495 33.58 44.9495 29.36C44.9495 25.14 42.9695 21.72 40.5295 21.72C38.1095 21.72 36.1295 25.14 36.1295 29.36C36.1295 33.58 38.1095 37 40.5295 37Z" fill="white"/>
<circle cx="32" cy="31" r="21" stroke="white" stroke-width="2"/>
</g>
<defs>
<clipPath id="clip0_212_13">
<rect width="64" height="90" fill="white"/>
</clipPath>
</defs>
</svg>
