<svg width="44" height="44" viewBox="0 0 44 44" fill="none" xmlns="http://www.w3.org/2000/svg">
<g clip-path="url(#clip0_212_6)">
<circle cx="22" cy="22" r="21.25" stroke="#B03E9B" stroke-width="1.5"/>
<path d="M14.14 30.44H14.02C11.92 30.44 9.76 29.34 8.82 27.56L9.64 25.7L9.8 25.76L9.78 26.06C9.78 28.46 11.8 29.86 13.82 29.86H14.06C15.94 29.74 17.74 28.38 17.8 25.42V25.32C17.8 21.26 12.84 21.06 9.48 20.1L10.52 14.8H16.4C17.54 14.76 17.6 14.28 17.6 14.28H17.84L18.38 17.26L18.1 17.34C17.54 16.3 16.98 16.14 14.64 16.14H11.12L10.58 18.8C14.32 20.06 19.04 20.08 19.14 25.18V25.32C19.14 27.86 17.58 30.38 14.14 30.44ZM22.1322 30.1C21.5122 30.1 20.9922 29.6 20.9922 28.98C20.9922 28.34 21.5122 27.84 22.1322 27.84C22.7522 27.84 23.2722 28.34 23.2722 28.98C23.2722 29.6 22.7522 30.1 22.1322 30.1ZM30.5295 30.44C27.3695 30.44 24.8095 26.82 24.8095 22.36C24.8095 17.9 27.3695 14.28 30.5295 14.28C33.6895 14.28 36.2495 17.9 36.2495 22.36C36.2495 26.82 33.6895 30.44 30.5295 30.44ZM30.5295 30C32.9695 30 34.9495 26.58 34.9495 22.36C34.9495 18.14 32.9695 14.72 30.5295 14.72C28.1095 14.72 26.1295 18.14 26.1295 22.36C26.1295 26.58 28.1095 30 30.5295 30Z" fill="#B03E9B"/>
</g>
<defs>
<clipPath id="clip0_212_6">
<rect width="44" height="44" fill="white"/>
</clipPath>
</defs>
</svg>
