<svg width="1621" height="367" viewBox="0 0 1621 367" fill="none" xmlns="http://www.w3.org/2000/svg">
<path d="M1345 131.577L1333 112M1378 157.5L1360 147M1416.5 180L1397 168M1444.2 212.273L1431 192.34M1324 93.5L1313 72.5M953.5 136L972 131.577M904.5 140L929.5 136M828.5 217L842.5 190M994 131.956L1009.5 126M1144.5 59L1164 46.5M1109.5 76.5L1128.5 67.5M1070 100.5L1085.5 90.5M1028 119.5L1051.5 110.5M1244.96 11.6581L1263 17M697 148L722.5 159.447M652 122L674.5 136M610 90.0002L631.808 109.958M585 45.5537L598.249 71.4556M731.5 182.5L745 207.5M450.297 36.7312L468.311 20.9448M405.819 66.4259L427.132 55.4095M361 60.7044L382.794 64.0129M501 7.74932L523.274 8.47997M544 14.5501L561.357 27.6478M798.5 249.5L818.5 236.5M320 45.5537L337.5 55.4095M285.5 26.8754L303 36.7312M94 14.5501L112.5 7.74932M68 17.792L44 20.9448M2 36.7312L21.5 27.6478M141 1.6792H158M185.5 1.6792L208 8.47997M239.5 17.792L259.5 20.9448M1454.46 231.808L1464.46 255.808M1469.43 268.746L1482.43 290.746M1493.38 308.677L1513 327.5M1530 340L1555 351.5M1565 358L1619.5 365M1282.5 30.5L1297 46.5M856 168.947L878 157.5M1180 38L1191.5 25.5M1204 17L1227.5 11.6581M758.5 232L779 242.947" stroke="white" stroke-width="3" stroke-linecap="round"/>
</svg>
