<svg width="126" height="124" viewBox="0 0 126 124" fill="none" xmlns="http://www.w3.org/2000/svg">
<g opacity="0.9">
<path fill-rule="evenodd" clip-rule="evenodd" d="M54.3561 0C74.507 0 94.6573 0 114.808 0C119.997 1.47502 123.468 4.70419 125.222 9.6875C126.012 15.3145 126.181 20.9656 125.73 26.6406C124.624 28.3677 123.269 28.5291 121.666 27.125C121.634 21.4396 121.295 15.7886 120.65 10.1719C119.133 7.11063 116.678 5.09238 113.284 4.11719C94.319 3.79427 75.3533 3.79427 56.3881 4.11719C52.286 4.97829 49.6612 7.31944 48.5141 11.1406C48.1754 24.2188 48.1754 37.2969 48.5141 50.375C50.2261 54.7518 53.5281 57.0928 58.4201 57.3984C69.7653 57.5597 81.111 57.7215 92.4562 57.8828C93.6586 58.8133 94.3358 60.0242 94.4882 61.5156C93.6068 65.0055 92.4216 68.3962 90.9322 71.6875C91.1013 71.8488 91.271 72.0106 91.4402 72.1719C97.3878 68.1995 102.807 63.598 107.696 58.3672C109.829 57.6372 112.03 57.1529 114.3 56.9141C117.82 55.6576 120.106 53.3166 121.158 49.8906C121.327 44.4011 121.497 38.9114 121.666 33.4219C122.72 32.3813 123.905 32.2198 125.222 32.9375C126.046 38.3798 126.215 43.8695 125.73 49.4063C123.807 57.2129 118.643 61.3301 110.236 61.7578C104.56 68.4674 97.7018 73.7151 89.6622 77.5C87.1161 77.1726 85.8461 75.7998 85.8522 73.3828C87.271 69.6231 88.6258 65.829 89.9162 62C87.3985 61.5185 84.8585 61.3572 82.2962 61.5156C82.381 73.3034 82.2962 85.0897 82.0422 96.875C79.1171 105.7 72.7671 109.575 62.9921 108.5C60.5959 108.487 58.2255 108.326 55.8801 108.016C54.5253 106.886 54.5253 105.755 55.8801 104.625C61.1425 104.359 66.3917 103.955 71.6281 103.414C74.6721 102.126 76.6192 99.9464 77.4701 96.875C77.7241 85.0897 77.809 73.3034 77.7241 61.5156C69.7363 61.7273 61.7775 61.4851 53.8481 60.7891C48.8347 59.3185 45.6174 56.1701 44.1961 51.3438C33.5321 50.779 22.8641 50.6981 12.192 51.1016C8.38202 52.1512 5.9267 54.4922 4.82601 58.125C4.48733 71.0418 4.48733 83.9582 4.82601 96.875C5.67681 99.9464 7.62418 102.126 10.668 103.414C13.0253 103.943 15.396 104.427 17.78 104.867C22.837 110.337 28.5097 115.1 34.7981 119.156C33.615 115.603 32.5144 111.971 31.4961 108.258C31.646 106.842 32.3233 105.711 33.5281 104.867C38.5702 104.097 43.6502 103.936 48.7681 104.383C50.5791 105.438 50.7488 106.729 49.2761 108.258C44.8637 108.339 40.461 108.581 36.0681 108.984C37.3584 112.813 38.713 116.607 40.1321 120.367C40.1675 121.998 39.4902 123.209 38.1001 124C36.7454 124 35.3907 124 34.0361 124C27.2603 119.723 21.1643 114.638 15.748 108.742C7.09657 108.241 1.93191 103.962 0.254002 95.9063C-0.0846672 83.6356 -0.0846672 71.3644 0.254002 59.0938C1.14727 53.0759 4.61859 49.12 10.668 47.2266C21.6518 46.5272 32.6585 46.285 43.6881 46.5C43.4579 34.0467 43.7119 21.6145 44.4501 9.20313C46.367 4.7104 49.6688 1.64269 54.3561 0Z" fill="#B03D9B"/>
<path fill-rule="evenodd" clip-rule="evenodd" d="M81.8286 12.4218C91.8205 12.3411 101.811 12.4218 111.801 12.6639C113.156 13.7941 113.156 14.9244 111.801 16.0546C101.81 16.3775 91.8195 16.3775 81.8286 16.0546C80.6155 14.8907 80.6155 13.6798 81.8286 12.4218Z" fill="#B03D9B"/>
<path fill-rule="evenodd" clip-rule="evenodd" d="M62.0166 16.7811C63.281 16.6832 64.4667 16.9254 65.5726 17.5077C66.7812 19.0847 67.7972 20.78 68.6206 22.5936C77.2099 23.0829 78.4799 26.1505 72.4306 31.7968C72.4723 34.216 72.4723 36.6378 72.4306 39.0624C71.1307 40.4425 69.5218 40.8461 67.6046 40.2733C66.1848 39.6438 64.8304 38.9172 63.5406 38.0936C55.5411 42.6635 52.578 40.5645 54.6506 31.7968C52.8193 30.3764 51.3796 28.6811 50.3326 26.7108C50.5739 25.8567 50.9127 25.0494 51.3486 24.289C53.6727 23.571 56.043 23.0059 58.4606 22.5936C59.3953 20.4838 60.581 18.5463 62.0166 16.7811ZM63.0326 22.5936C63.978 23.815 64.994 25.026 66.0806 26.2265C67.6046 26.7108 69.1286 27.1952 70.6526 27.6796C67.725 29.701 66.7939 32.3651 67.8586 35.6718C64.9595 33.0966 62.0811 33.0966 59.2226 35.6718C60.2432 32.3883 59.312 29.7242 56.4286 27.6796C60.0064 27.5906 62.2076 25.8953 63.0326 22.5936Z" fill="#B03D9B"/>
<path fill-rule="evenodd" clip-rule="evenodd" d="M81.8286 20.1718C91.8205 20.0911 101.811 20.1718 111.801 20.4139C113.156 21.5441 113.156 22.6744 111.801 23.8046C101.81 24.1275 91.8195 24.1275 81.8286 23.8046C80.5084 22.5555 80.5084 21.3446 81.8286 20.1718Z" fill="#B03D9B"/>
<path fill-rule="evenodd" clip-rule="evenodd" d="M82.3366 27.4374C91.9902 27.3567 101.642 27.4374 111.293 27.6796C113.325 28.9713 113.325 30.2629 111.293 31.5546C101.641 31.8775 91.9887 31.8775 82.3366 31.5546C80.3707 30.1645 80.3707 28.7921 82.3366 27.4374Z" fill="#AF3D9B"/>
<path fill-rule="evenodd" clip-rule="evenodd" d="M81.8286 35.1874C91.8205 35.1067 101.811 35.1874 111.801 35.4296C113.156 36.5598 113.156 37.69 111.801 38.8202C101.81 39.1431 91.8195 39.1431 81.8286 38.8202C80.5495 37.6195 80.5495 36.4086 81.8286 35.1874Z" fill="#AF3D9B"/>
<path fill-rule="evenodd" clip-rule="evenodd" d="M82.3366 42.453C87.4197 42.3724 92.4997 42.4531 97.5767 42.6952C99.5508 44.0552 99.5508 45.3468 97.5767 46.5702C92.4967 46.8931 87.4167 46.8931 82.3366 46.5702C80.3458 45.2265 80.3458 43.8542 82.3366 42.453Z" fill="#B03D9B"/>
<path fill-rule="evenodd" clip-rule="evenodd" d="M35.6006 60.3749C38.9915 60.2945 42.3782 60.3749 45.7606 60.6171C46.8646 61.5204 47.0341 62.5696 46.2686 63.7655C42.7246 64.3293 39.1686 64.4102 35.6006 64.0077C34.5851 62.8864 34.5851 61.6754 35.6006 60.3749Z" fill="#B13D9C"/>
<path fill-rule="evenodd" clip-rule="evenodd" d="M11.7245 68.1249C13.9196 67.9931 16.0363 68.3157 18.0745 69.0936C22.3935 67.1445 25.7801 68.1133 28.2345 71.9999C28.6751 74.1583 28.5058 76.2571 27.7265 78.2968C25.0858 80.9768 22.2918 83.4796 19.3445 85.8046C18.3285 86.1277 17.3125 86.1277 16.2965 85.8046C12.8042 83.2824 9.8408 80.2953 7.40651 76.8436C6.54291 72.8412 7.98222 69.935 11.7245 68.1249ZM12.2325 72.4843C11.9006 73.1173 11.5619 73.763 11.2165 74.4218C13.0588 76.986 15.2602 79.2466 17.8205 81.203C19.8153 79.6457 21.7627 78.0308 23.6625 76.3593C24.8812 73.2825 23.7805 72.0716 20.3605 72.7265C18.7063 74.289 17.013 74.289 15.2805 72.7265C14.2784 72.4867 13.2624 72.4058 12.2325 72.4843Z" fill="#B03D9B"/>
<path fill-rule="evenodd" clip-rule="evenodd" d="M35.6006 68.1249C45.7662 67.9636 55.9262 68.1249 66.0806 68.6093C66.8462 69.8052 66.6765 70.8543 65.5726 71.7577C55.7514 72.0808 45.9299 72.0808 36.1086 71.7577C34.5044 70.6654 34.3351 69.4545 35.6006 68.1249Z" fill="#B03D9B"/>
<path fill-rule="evenodd" clip-rule="evenodd" d="M36.1086 75.3905C45.9314 75.3096 55.753 75.3905 65.5726 75.6327C66.9696 77.0916 66.8005 78.3835 65.0646 79.5077C55.5818 79.8308 46.0993 79.8308 36.6166 79.5077C34.1211 78.3549 33.9518 76.9827 36.1086 75.3905Z" fill="#B03D9A"/>
<path fill-rule="evenodd" clip-rule="evenodd" d="M35.6006 83.1405C45.5927 83.0596 55.5833 83.1405 65.5726 83.3827C66.9275 84.5127 66.9275 85.6433 65.5726 86.7733C55.5818 87.0964 45.5913 87.0964 35.6006 86.7733C34.3478 85.5241 34.3478 84.3132 35.6006 83.1405Z" fill="#B03E9B"/>
<path fill-rule="evenodd" clip-rule="evenodd" d="M36.1086 90.4061C41.1914 90.3257 46.2714 90.4061 51.3486 90.6483C52.774 91.2804 53.1977 92.3301 52.6186 93.7968C52.2376 94.1 51.8139 94.3422 51.3486 94.5233C46.2686 94.8464 41.1886 94.8464 36.1086 94.5233C35.477 93.9644 34.969 93.3182 34.5846 92.5858C35.0347 91.8036 35.5427 91.077 36.1086 90.4061Z" fill="#B03E9B"/>
</g>
</svg>
