<svg width="52" height="52" viewBox="0 0 52 52" fill="none" xmlns="http://www.w3.org/2000/svg">
<path opacity="0.995" fill-rule="evenodd" clip-rule="evenodd" d="M8.24805 0C19.916 0 31.584 0 43.252 0C47.7783 0.972331 50.5276 3.72168 51.5 8.24805C51.5 19.916 51.5 31.584 51.5 43.252C50.5276 47.7783 47.7783 50.5276 43.252 51.5C31.584 51.5 19.916 51.5 8.24805 51.5C3.72168 50.5276 0.972331 47.7783 0 43.252C0 31.584 0 19.916 0 8.24805C0.972331 3.72168 3.72168 0.972331 8.24805 0ZM14.8867 8.65039C15.3574 8.63371 15.8267 8.65047 16.2949 8.70068C16.4458 8.85156 16.5967 9.00244 16.7476 9.15332C18.2081 11.605 19.6163 14.0862 20.9722 16.5967C21.0004 17.0482 20.8664 17.4506 20.5698 17.8037C19.3963 18.8431 18.2229 19.8825 17.0493 20.9219C16.7935 21.1686 16.6426 21.4704 16.5967 21.8271C19.1784 27.9629 23.5371 32.3216 29.6729 34.9033C30.0022 34.8058 30.3039 34.6549 30.5781 34.4507C31.6839 33.1774 32.8239 31.9367 33.998 30.729C34.551 30.3969 35.0875 30.4304 35.6074 30.8296C37.6035 32.0794 39.6487 33.2529 41.7432 34.3501C42.1413 34.5748 42.4933 34.8598 42.7993 35.2051C42.8992 36.65 42.6309 38.0246 41.9946 39.3291C41.0002 40.657 39.7094 41.579 38.1221 42.0952C36.0132 42.9786 33.8673 43.0791 31.6846 42.397C26.8342 41.0291 22.5761 38.6485 18.9102 35.2554C16.4009 32.9607 14.2383 30.3958 12.4224 27.5605C10.7827 24.7211 9.57564 21.7035 8.80127 18.5078C8.47287 15.5361 9.21049 12.8538 11.0142 10.4609C12.1035 9.42188 13.3944 8.81836 14.8867 8.65039Z" fill="#B03E9B"/>
</svg>
