<svg width="51" height="51" viewBox="0 0 51 51" fill="none" xmlns="http://www.w3.org/2000/svg">
<g clip-path="url(#clip0_154_79)">
<path opacity="0.991" fill-rule="evenodd" clip-rule="evenodd" d="M23.1592 -0.0498047C24.6865 -0.0498047 26.2139 -0.0498047 27.7412 -0.0498047C36.6706 1.03473 43.3942 5.45075 47.9121 13.1982C49.5751 16.333 50.5877 19.6533 50.9502 23.1592C50.9502 24.6865 50.9502 26.2139 50.9502 27.7412C49.8657 36.6706 45.4497 43.3942 37.7021 47.9121C34.5673 49.5751 31.2471 50.5877 27.7412 50.9502C26.2139 50.9502 24.6865 50.9502 23.1592 50.9502C14.2298 49.8657 7.50618 45.4497 2.98828 37.7021C1.32533 34.5673 0.312634 31.2471 -0.0498047 27.7412C-0.0498047 26.2139 -0.0498047 24.6865 -0.0498047 23.1592C1.18599 13.5289 6.13325 6.5397 14.792 2.19141C17.4763 1.00589 20.2653 0.258819 23.1592 -0.0498047ZM36.3076 15.3896C37.602 15.2843 38.1499 15.8819 37.9512 17.1826C36.5694 23.7928 35.1749 30.4003 33.7676 37.0049C33.4454 38.5192 32.6319 38.8679 31.3271 38.0508C29.2788 36.5001 27.2036 34.9893 25.1016 33.5186C23.9573 34.5964 22.8117 35.6755 21.665 36.7559C21.3659 36.9547 21.0671 37.0377 20.7686 37.0049C20.9369 34.8802 21.1196 32.7552 21.3164 30.6299C25.2974 27.0807 29.2485 23.4948 33.1699 19.8721C33.2499 19.6006 33.1503 19.4347 32.8711 19.374C32.5728 19.4513 32.2906 19.5676 32.0244 19.7227C27.21 22.7607 22.3955 25.7988 17.5811 28.8369C15.4264 28.1464 13.2683 27.4657 11.1064 26.7949C10.2756 26.3934 10.2092 25.8953 10.9072 25.3008C19.38 21.9846 27.8468 18.6808 36.3076 15.3896Z" fill="#B03E9B"/>
</g>
<defs>
<clipPath id="clip0_154_79">
<rect width="51" height="51" fill="white"/>
</clipPath>
</defs>
</svg>
