<svg width="129" height="127" viewBox="0 0 129 127" fill="none" xmlns="http://www.w3.org/2000/svg">
<g opacity="0.914">
<path fill-rule="evenodd" clip-rule="evenodd" d="M6.25 0.753906C8.25 0.753906 10.25 0.753906 12.25 0.753906C13.3212 1.85204 14.3212 1.85204 15.25 0.753906C17.25 0.753906 19.25 0.753906 21.25 0.753906C25.903 2.8566 27.8197 6.46599 27 11.582C24.1594 17.5772 19.7427 22.0069 13.75 24.8711C12.4262 24.6411 11.2596 24.0669 10.25 23.1484C6.39945 19.94 3.2328 16.2486 0.75 12.0742C0.75 10.1055 0.75 8.13672 0.75 6.16797C2.08334 3.87109 3.91667 2.06641 6.25 0.753906ZM7.75 6.16797C8.9284 6.08759 10.0951 6.16964 11.25 6.41406C13.0834 8.05467 14.9167 8.05467 16.75 6.41406C20.3976 5.6175 21.981 7.01202 21.5 10.5977C19.5115 13.7857 16.9281 16.4107 13.75 18.4727C10.8856 16.2281 8.4689 13.6032 6.5 10.5977C5.96356 8.82593 6.38025 7.34937 7.75 6.16797Z" fill="#B03D9B"/>
<path fill-rule="evenodd" clip-rule="evenodd" d="M128.75 19.457C128.75 21.4258 128.75 23.3945 128.75 25.3633C126.267 29.5377 123.101 33.2291 119.25 36.4375C117.509 38.2545 115.509 38.5826 113.25 37.4219C109.123 34.3453 105.707 30.6539 103 26.3477C101.184 17.3068 104.934 13.2872 114.25 14.2891C115.185 15.059 116.185 15.059 117.25 14.2891C122.498 13.1005 126.332 14.8231 128.75 19.457ZM109.75 19.457C110.764 19.3772 111.764 19.4592 112.75 19.7031C114.583 21.3437 116.417 21.3437 118.25 19.7031C121.915 18.883 123.499 20.2776 123 23.8867C121.031 26.8922 118.615 29.5172 115.75 31.7617C112.572 29.6997 109.989 27.0747 108 23.8867C107.49 21.9442 108.074 20.4676 109.75 19.457Z" fill="#B03D9B"/>
<path fill-rule="evenodd" clip-rule="evenodd" d="M99.25 126.754C98.4165 126.754 97.5835 126.754 96.75 126.754C92.518 122.341 88.1845 117.994 83.75 113.711C75.8535 114.261 68.2705 113.031 61 110.02C53.385 115.194 44.9683 117.245 35.75 116.172C32.1487 119.634 28.6487 123.162 25.25 126.754C24.0833 126.754 22.9167 126.754 21.75 126.754C20.8046 125.604 20.5546 124.292 21 122.816C24.9167 118.961 28.8333 115.105 32.75 111.25C38.8473 111.34 44.8473 110.684 50.75 109.281C56.77 105.977 62.52 102.286 68 98.207C68.4235 96.2521 67.6735 94.9399 65.75 94.2695C63.42 95.2514 61.253 96.4819 59.25 97.9609C54.628 98.8282 53.045 97.1055 54.5 92.793C60.3335 87.0506 66.1665 81.3088 72 75.5664C72.676 72.253 71.426 71.1864 68.25 72.3672C64.0685 76.6477 59.735 80.7496 55.25 84.6719C51.8605 84.6054 50.9438 83.0467 52.5 79.9961C57.8335 74.7459 63.1665 69.4963 68.5 64.2461C68.9165 61.703 67.8335 60.6369 65.25 61.0469C59.9165 66.297 54.5835 71.5467 49.25 76.7969C45.9 78.2562 44.3167 77.1896 44.5 73.5976C49.2903 69.2123 53.707 64.5365 57.75 59.5703C57.1425 57.3018 55.809 56.6457 53.75 57.6016C49.5834 61.703 45.4166 65.8048 41.25 69.9062C38.8039 70.738 37.3039 69.9176 36.75 67.4453C38.3131 65.1665 39.9798 62.9516 41.75 60.8008C40.9725 58.3546 39.4725 57.7802 37.25 59.0781C30.7813 64.9509 24.8647 71.2676 19.5 78.0273C17.4471 83.5728 16.4471 89.3147 16.5 95.2539C12.5834 99.1092 8.66665 102.965 4.75 106.82C3.2512 107.259 1.91787 107.013 0.75 106.082C0.75 104.934 0.75 103.785 0.75 102.637C4.23243 99.4552 7.6491 96.1738 11 92.793C10.9302 86.4044 12.2635 80.3337 15 74.582C15.9166 73.3516 16.8333 72.1211 17.75 70.8906C13.6136 66.1932 13.197 61.1891 16.5 55.8789C17.782 54.7828 19.1987 53.8801 20.75 53.1719C17.3597 46.4234 19.0264 41.2554 25.75 37.668C23.4099 32.8748 24.0765 28.5272 27.75 24.625C31.5949 22.0194 35.595 21.7733 39.75 23.8867C43.2123 17.2507 48.379 15.528 55.25 18.7187C57.6665 21.0976 60.0835 23.4766 62.5 25.8555C63.0835 28.8906 61.8335 30.1211 58.75 29.5469C56.2665 27.5949 53.933 25.4621 51.75 23.1484C47.0107 22.0687 44.9274 23.9554 45.5 28.8086C50.3182 34.0441 55.318 39.1301 60.5 44.0664C61.6215 47.396 60.3715 48.7905 56.75 48.25C50.0834 41.6875 43.4166 35.125 36.75 28.5625C31.3334 27.332 29.25 29.3828 30.5 34.7148C34.3334 38.4883 38.1666 42.2617 42 46.0352C43.3428 49.7968 42.0928 51.1913 38.25 50.2187C35.5939 47.1067 32.5106 44.5638 29 42.5898C25.0582 43.5004 23.7248 45.7973 25 49.4805C27.3333 51.7775 29.6667 54.074 32 56.3711C36.963 51.6564 41.713 51.8208 46.25 56.8633C47.6587 55.7229 48.9921 54.4924 50.25 53.1719C53.5695 50.9762 56.903 50.9762 60.25 53.1719C61.3085 54.0238 62.0585 55.0904 62.5 56.3711C68.0005 54.2384 71.8335 55.8789 74 61.293C74.163 63.2765 74.163 65.2452 74 67.1992C77.55 69.5804 78.717 72.8613 77.5 77.043C77.1665 77.699 76.8335 78.3556 76.5 79.0117C73.1595 82.2178 69.9095 85.4992 66.75 88.8555C73.3525 91.0363 75.269 95.3021 72.5 101.652C70.5835 103.211 68.6665 104.769 66.75 106.328C68.71 106.974 70.71 107.467 72.75 107.805C77.467 107.831 82.1335 108.159 86.75 108.789C91.1665 113.137 95.5835 117.485 100 121.832C101.131 123.725 100.881 125.366 99.25 126.754ZM22.75 58.3398C24.8706 57.9707 26.5373 58.6268 27.75 60.3086C25.7577 62.516 23.6744 64.6487 21.5 66.707C18.8561 63.401 19.2728 60.6118 22.75 58.3398Z" fill="#AF3D9B"/>
<path fill-rule="evenodd" clip-rule="evenodd" d="M64.25 30.2852C68.122 30.0628 69.2885 31.6213 67.75 34.9609C65.1615 36.312 63.6615 35.5737 63.25 32.7461C63.2185 31.7549 63.5515 30.9345 64.25 30.2852Z" fill="#B13D9C"/>
<path fill-rule="evenodd" clip-rule="evenodd" d="M87.75 30.2852C91.524 30.0434 94.774 31.1919 97.5 33.7305C101.709 40.2136 106.043 46.612 110.5 52.9258C112.697 56.9519 114.197 61.2172 115 65.7227C115.563 71.2849 115.897 76.8628 116 82.457C118 84.4258 120 86.3945 122 88.3633C122.636 91.8381 121.219 93.0686 117.75 92.0547C115.333 89.6759 112.917 87.2967 110.5 84.918C110.333 79.8322 110.167 74.7459 110 69.6602C109.519 64.9775 108.186 60.5478 106 56.3711C101.543 50.0573 97.2095 43.6589 93 37.1758C88.937 34.8461 86.187 35.9125 84.75 40.375C86.171 43.7469 87.921 46.9461 90 49.9727C90.344 55.2622 88.094 56.6566 83.25 54.1562C78.8335 49.8086 74.4165 45.4609 70 41.1133C68.22 37.4924 69.3035 35.9338 73.25 36.4375C75.1665 38.3242 77.0835 40.211 79 42.0977C78.996 35.9629 81.913 32.0254 87.75 30.2852Z" fill="#AF3D9B"/>
<path fill-rule="evenodd" clip-rule="evenodd" d="M88.25 64.7383C91.178 64.9125 92.2615 66.3891 91.5 69.168C87.6055 72.6595 87.272 76.4327 90.5 80.4883C91.1355 83.9631 89.719 85.1936 86.25 84.1797C82.274 79.5871 81.524 74.583 84 69.168C85.181 67.432 86.598 65.9555 88.25 64.7383Z" fill="#B03D9B"/>
<path fill-rule="evenodd" clip-rule="evenodd" d="M128.75 94.7617C128.75 95.91 128.75 97.0588 128.75 98.207C126.159 99.8726 124.493 99.2987 123.75 96.4844C123.925 93.9791 125.257 93.1587 127.75 94.0234C128.022 94.3763 128.356 94.6224 128.75 94.7617Z" fill="#AF3D9B"/>
</g>
</svg>
