<svg width="154" height="141" viewBox="0 0 154 141" fill="none" xmlns="http://www.w3.org/2000/svg">
<path d="M122.401 36.5987L120.634 38.3665L120.634 38.3665L122.401 36.5987ZM53.1996 22.8337L54.1563 25.1433L54.1563 25.1433L53.1996 22.8337ZM18.8336 57.1996L16.5239 56.2429L18.8336 57.1996ZM136.166 57.1996L138.476 56.2429L138.476 56.2429L136.166 57.1996ZM136.737 52.3976C136.128 51.1584 134.63 50.6473 133.391 51.2562C132.152 51.865 131.641 53.3631 132.25 54.6024L136.737 52.3976ZM127.075 45.9567C127.879 47.0788 129.441 47.3363 130.563 46.5317C131.685 45.7272 131.943 44.1654 131.138 43.0433L127.075 45.9567ZM128.745 44L130.762 42.5236L130.762 42.5236L128.745 44ZM11.7953 75.2638C11.6648 76.6383 12.6733 77.8584 14.0479 77.9888C15.4224 78.1193 16.6424 77.1108 16.7729 75.7362L11.7953 75.2638ZM138.227 75.7362C138.358 77.1108 139.578 78.1193 140.952 77.9888C142.327 77.8584 143.335 76.6383 143.205 75.2638L138.227 75.7362ZM88 10.2414L90.43 10.8286L90.5 10.5392V10.2414H88ZM25.5 78.5C26.8807 78.5 28 77.3807 28 76C28 74.6193 26.8807 73.5 25.5 73.5V78.5ZM75 118L74.8337 120.494L75.0092 120.506L75.1847 120.493L75 118ZM88.5 117L88.6847 119.493L88.8237 119.483L88.9607 119.457L88.5 117ZM105.801 110.332L104.201 108.412L104.201 108.412L105.801 110.332ZM119.267 99.1111L120.867 101.032L120.867 101.032L119.267 99.1111ZM120.604 97.7612L118.67 96.1781L118.67 96.1781L120.604 97.7612ZM123.705 93.9713L125.64 95.5544L125.64 95.5544L123.705 93.9713ZM121.837 88.3342L121.231 90.7596L121.231 90.7596L121.837 88.3342ZM120.762 88.0654L121.368 85.64L121.368 85.64L120.762 88.0654ZM116.627 88.8876L118.115 90.8965L118.115 90.8965L116.627 88.8876ZM106.546 96.3546L108.034 98.3635L108.034 98.3635L106.546 96.3546ZM103.139 97.9897L102.503 95.5721L102.503 95.5721L103.139 97.9897ZM95.5 100L96.0188 102.446L96.0778 102.433L96.1362 102.418L95.5 100ZM83.6904 102.505L84.2092 104.951L84.2092 104.951L83.6904 102.505ZM82.9017 100.713L84.3548 102.747L84.3548 102.747L82.9017 100.713ZM88.0773 97.0162L89.5304 99.0506L89.5304 99.0505L88.0773 97.0162ZM90.0529 94.3413L92.4246 95.1319L92.4246 95.1319L90.0529 94.3413ZM90.2879 93.6364L87.9162 92.8458L87.9162 92.8458L90.2879 93.6364ZM86.855 88.3355L87.1038 85.8479L87.1038 85.8479L86.855 88.3355ZM84.9094 88.1409L84.6607 90.6285L84.6607 90.6285L84.9094 88.1409ZM82.1173 88.3073L82.6596 90.7477L82.6596 90.7477L82.1173 88.3073ZM79 89L78.4577 86.5595L78.4256 86.5667L78.3937 86.5746L79 89ZM70.1943 91.2014L69.588 88.7761L69.588 88.7761L70.1943 91.2014ZM62.5578 91.0612L63.2779 88.6671L63.2779 88.6671L62.5578 91.0612ZM46.8132 87.1388L47.2455 84.6765L47.2455 84.6765L46.8132 87.1388ZM41.4284 87.2381L40.8861 84.7977L40.8861 84.7977L41.4284 87.2381ZM39.5841 87.648L40.1265 90.0884L40.1265 90.0884L39.5841 87.648ZM36.6085 88.8349L37.8947 90.9787L37.8947 90.9786L36.6085 88.8349ZM36.367 88.9798L35.0808 86.8361L35.0807 86.8361L36.367 88.9798ZM34.7547 90.1832L33.0654 88.3403L33.0654 88.3403L34.7547 90.1832ZM29.5 95L27.8107 93.1571L27.751 93.2118L27.695 93.2702L29.5 95ZM47.3565 119.468L45.7417 117.559L45.7417 117.559L47.3565 119.468ZM49.8768 117.91L50.8616 120.208L50.8616 120.208L49.8768 117.91ZM50.8929 117.474L49.9081 115.177L49.9081 115.177L50.8929 117.474ZM53.1881 116.802L53.5991 119.268L53.5991 119.268L53.1881 116.802ZM54.1836 116.636L53.7726 114.17L53.7726 114.17L54.1836 116.636ZM60 116.5L60.3304 114.022L60.1659 114H60V116.5ZM67.5 117.5L67.1696 119.978L67.2514 119.989L67.3337 119.994L67.5 117.5ZM95.0067 115.78L94.546 113.323L94.546 113.323L95.0067 115.78ZM97.8427 114.789L99.0124 116.999L99.0124 116.999L97.8427 114.789ZM104.078 111.488L102.909 109.279L102.909 109.279L104.078 111.488ZM89.5583 89.77L91.4789 88.1696L91.4789 88.1696L89.5583 89.77ZM41.8007 135.939L39.7315 134.536L39.7315 134.536L41.8007 135.939ZM36.2452 137.005L34.8423 139.075L34.8423 139.075L36.2452 137.005ZM43.8105 125.847L45.2135 123.778L43.8105 125.847ZM44.8767 131.402L46.9459 132.805L46.9459 132.805L44.8767 131.402ZM11.1993 108.57L13.2685 109.972L13.2685 109.972L11.1993 108.57ZM16.7548 107.503L15.3518 109.573L16.7548 107.503ZM8.12331 113.106L6.05406 111.704L6.05406 111.704L8.12331 113.106ZM9.18944 118.662L10.5924 116.593L10.5924 116.593L9.18944 118.662ZM124.169 34.8309C118.04 28.7023 110.765 23.8408 102.757 20.5239L100.844 25.1433C108.245 28.2089 114.969 32.7021 120.634 38.3665L124.169 34.8309ZM102.757 20.5239C94.7496 17.2071 86.1672 15.5 77.5 15.5V20.5C85.5106 20.5 93.4428 22.0778 100.844 25.1433L102.757 20.5239ZM77.5 15.5C68.8327 15.5 60.2504 17.2071 52.2429 20.524L54.1563 25.1433C61.5572 22.0778 69.4894 20.5 77.5 20.5V15.5ZM52.2429 20.524C44.2354 23.8408 36.9596 28.7023 30.8309 34.831L34.3665 38.3665C40.0309 32.7021 46.7554 28.2089 54.1563 25.1433L52.2429 20.524ZM30.8309 34.831C24.7023 40.9596 19.8408 48.2354 16.5239 56.2429L21.1433 58.1563C24.2089 50.7555 28.7021 44.0309 34.3665 38.3665L30.8309 34.831ZM138.476 56.2429C137.937 54.9412 137.357 53.6589 136.737 52.3976L132.25 54.6024C132.822 55.7681 133.358 56.9532 133.857 58.1563L138.476 56.2429ZM131.138 43.0433C131.014 42.8695 130.888 42.6962 130.762 42.5236L126.727 45.4764C126.844 45.6359 126.96 45.796 127.075 45.9567L131.138 43.0433ZM130.762 42.5236C128.769 39.8005 126.566 37.228 124.169 34.8309L120.634 38.3665C122.849 40.5819 124.885 42.9595 126.727 45.4764L130.762 42.5236ZM16.5239 56.2429C14.0054 62.3232 12.4149 68.735 11.7953 75.2638L16.7729 75.7362C17.3456 69.7021 18.8156 63.776 21.1433 58.1563L16.5239 56.2429ZM143.205 75.2638C142.585 68.735 140.995 62.3232 138.476 56.2429L133.857 58.1563C136.184 63.776 137.654 69.7021 138.227 75.7362L143.205 75.2638ZM69.5 10.2414C69.5 9.64356 69.9851 8.49204 71.5458 7.35707C73.0239 6.28212 75.1353 5.5 77.5 5.5V0.5C74.0657 0.5 70.9271 1.62458 68.605 3.31333C66.3654 4.94206 64.5 7.41122 64.5 10.2414H69.5ZM77.5 5.5C79.8647 5.5 81.9761 6.28212 83.4542 7.35707C85.0149 8.49204 85.5 9.64356 85.5 10.2414H90.5C90.5 7.41122 88.6346 4.94206 86.395 3.31333C84.0729 1.62458 80.9343 0.5 77.5 0.5V5.5ZM85.57 9.65412C85.1535 11.3775 84.2025 14.2423 82.8012 16.798L87.1854 19.202C88.8404 16.1836 89.9323 12.8881 90.43 10.8286L85.57 9.65412ZM71.9249 16.7359C71.1494 15.4127 70.5252 14.0263 70.1005 12.8064C69.6555 11.5282 69.5 10.634 69.5 10.2414H64.5C64.5 11.4683 64.8691 12.9872 65.3785 14.4503C65.9082 15.9717 66.668 17.6548 67.6112 19.2641L71.9249 16.7359ZM145.5 84.5H8.5V89.5H145.5V84.5ZM36 78.5H145.5V73.5H36V78.5ZM8.5 78.5H25.5V73.5H8.5V78.5ZM8.5 84.5C6.84315 84.5 5.5 83.1569 5.5 81.5H0.5C0.5 85.9183 4.08173 89.5 8.5 89.5V84.5ZM148.5 81.5C148.5 83.1569 147.157 84.5 145.5 84.5V89.5C149.918 89.5 153.5 85.9183 153.5 81.5H148.5ZM153.5 81.5C153.5 77.0817 149.918 73.5 145.5 73.5V78.5C147.157 78.5 148.5 79.8431 148.5 81.5H153.5ZM5.5 81.5C5.5 79.8431 6.84315 78.5 8.5 78.5V73.5C4.08172 73.5 0.5 77.0817 0.5 81.5H5.5ZM75.1847 120.493L88.6847 119.493L88.3153 114.507L74.8153 115.507L75.1847 120.493ZM107.402 112.253L120.867 101.032L117.666 97.1905L104.201 108.412L107.402 112.253ZM122.539 99.3443L125.64 95.5544L121.77 92.3882L118.67 96.1781L122.539 99.3443ZM122.443 85.9089L121.368 85.64L120.155 90.4907L121.231 90.7596L122.443 85.9089ZM115.139 86.8787L105.058 94.3457L108.034 98.3635L118.115 90.8965L115.139 86.8787ZM102.503 95.5721L94.8638 97.5823L96.1362 102.418L103.775 100.407L102.503 95.5721ZM94.9812 97.5544L83.1716 100.059L84.2092 104.951L96.0188 102.446L94.9812 97.5544ZM84.3548 102.747L89.5304 99.0506L86.6242 94.9819L81.4486 98.6788L84.3548 102.747ZM92.4246 95.1319L92.6596 94.4269L87.9162 92.8458L87.6812 93.5508L92.4246 95.1319ZM87.1038 85.8479L85.1582 85.6534L84.6607 90.6285L86.6063 90.8231L87.1038 85.8479ZM81.5749 85.8668L78.4577 86.5595L79.5423 91.4405L82.6596 90.7477L81.5749 85.8668ZM78.3937 86.5746L69.588 88.7761L70.8006 93.6268L79.6063 91.4254L78.3937 86.5746ZM67.7689 89H65.5037V94H67.7689V89ZM63.2779 88.6671C54.8217 86.1237 49.7147 85.11 47.2455 84.6765L46.3808 89.6011C48.6592 90.0012 53.574 90.9696 61.8377 93.4552L63.2779 88.6671ZM45.1724 84.5H43.5977V89.5H45.1724V84.5ZM40.8861 84.7977L39.0418 85.2075L40.1265 90.0884L41.9707 89.6786L40.8861 84.7977ZM35.3223 86.6912L35.0808 86.8361L37.6532 91.1236L37.8947 90.9787L35.3223 86.6912ZM33.0654 88.3403L27.8107 93.1571L31.1893 96.8429L36.444 92.0261L33.0654 88.3403ZM27.695 93.2702L16.195 105.27L19.805 108.73L31.305 96.7298L27.695 93.2702ZM43.6149 125.908L48.9714 121.376L45.7417 117.559L40.3851 122.092L43.6149 125.908ZM50.8616 120.208L51.8777 119.772L49.9081 115.177L48.892 115.612L50.8616 120.208ZM53.5991 119.268L54.5946 119.102L53.7726 114.17L52.7771 114.336L53.5991 119.268ZM55.8276 119H60V114H55.8276V119ZM59.6696 118.978L67.1696 119.978L67.8304 115.022L60.3304 114.022L59.6696 118.978ZM67.3337 119.994L74.8337 120.494L75.1663 115.506L67.6663 115.006L67.3337 119.994ZM88.9607 119.457L95.4675 118.237L94.546 113.323L88.0393 114.543L88.9607 119.457ZM99.0124 116.999L105.248 113.697L102.909 109.279L96.673 112.58L99.0124 116.999ZM51.8777 119.772C52.4292 119.536 53.0072 119.367 53.5991 119.268L52.7771 114.336C51.7906 114.5 50.8274 114.783 49.9081 115.177L51.8777 119.772ZM48.9714 121.376C49.5399 120.895 50.177 120.501 50.8616 120.208L48.892 115.612C47.751 116.101 46.6893 116.757 45.7417 117.559L48.9714 121.376ZM35.0807 86.8361C34.3601 87.2685 33.6849 87.7724 33.0654 88.3403L36.444 92.0261C36.8157 91.6854 37.2208 91.383 37.6532 91.1235L35.0807 86.8361ZM39.0418 85.2075C37.7303 85.499 36.4743 85.9999 35.3222 86.6912L37.8947 90.9786C38.586 90.5639 39.3395 90.2633 40.1265 90.0884L39.0418 85.2075ZM43.5977 84.5C42.6857 84.5 41.7764 84.5998 40.8861 84.7977L41.9707 89.6786C42.5049 89.5599 43.0505 89.5 43.5977 89.5V84.5ZM47.2455 84.6765C46.5481 84.554 45.8552 84.5 45.1724 84.5V89.5C45.5912 89.5 45.9933 89.5331 46.3808 89.6011L47.2455 84.6765ZM65.5037 89C64.7596 89 64.0076 88.8866 63.2779 88.6671L61.8377 93.4552C63.0172 93.81 64.254 94 65.5037 94V89ZM69.588 88.7761C68.9931 88.9248 68.3822 89 67.7689 89V94C68.791 94 69.8091 93.8747 70.8006 93.6268L69.588 88.7761ZM85.1582 85.6534C83.96 85.5335 82.7504 85.6056 81.5749 85.8668L82.6596 90.7477C83.316 90.6019 83.9916 90.5616 84.6607 90.6285L85.1582 85.6534ZM91.4789 88.1696C90.3811 86.8522 88.81 86.0185 87.1038 85.8479L86.6063 90.8231C87.0085 90.8633 87.379 91.0599 87.6378 91.3705L91.4789 88.1696ZM92.6596 94.427C93.3761 92.2774 92.9294 89.9102 91.4789 88.1696L87.6378 91.3705C87.9798 91.7809 88.0851 92.339 87.9162 92.8458L92.6596 94.427ZM83.1716 100.059C84.7622 99.7221 85.6778 101.802 84.3548 102.747L81.4486 98.6788C78.3614 100.884 80.498 105.738 84.2092 104.951L83.1716 100.059ZM105.058 94.3457C104.292 94.9132 103.425 95.3294 102.503 95.5721L103.775 100.407C105.312 100.003 106.758 99.3093 108.034 98.3635L105.058 94.3457ZM121.368 85.64C119.211 85.1007 116.925 85.5552 115.139 86.8787L118.115 90.8965C118.7 90.4629 119.449 90.3141 120.155 90.4907L121.368 85.64ZM127 91.745C127 88.9846 125.121 86.5784 122.443 85.9089L121.231 90.7596C121.683 90.8726 122 91.2789 122 91.745H127ZM120.867 101.032C121.477 100.524 122.037 99.9586 122.539 99.3443L118.67 96.1781C118.368 96.5467 118.032 96.8857 117.666 97.1905L120.867 101.032ZM104.201 108.412C103.801 108.745 103.368 109.035 102.909 109.279L105.248 113.697C106.014 113.292 106.736 112.808 107.402 112.253L104.201 108.412ZM95.4675 118.237C96.7047 118.005 97.8999 117.588 99.0124 116.999L96.673 112.58C96.0055 112.933 95.2884 113.184 94.546 113.323L95.4675 118.237ZM125.64 95.5544C126.52 94.4796 127 93.1337 127 91.745H122C122 91.9795 121.919 92.2067 121.77 92.3882L125.64 95.5544ZM89.5304 99.0505C90.885 98.083 91.8982 96.7111 92.4246 95.1319L87.6812 93.5508C87.4889 94.1275 87.1189 94.6285 86.6242 94.9819L89.5304 99.0505ZM54.5946 119.102C55.0021 119.034 55.4145 119 55.8276 119V114C55.1391 114 54.4518 114.057 53.7726 114.17L54.5946 119.102ZM10.1926 114.509L13.2685 109.972L9.13003 107.167L6.05406 111.704L10.1926 114.509ZM15.3518 109.573L42.4076 127.916L45.2135 123.778L18.1577 105.434L15.3518 109.573ZM42.8074 129.999L39.7315 134.536L43.87 137.342L46.9459 132.805L42.8074 129.999ZM37.6481 134.936L10.5924 116.593L7.78651 120.731L34.8423 139.075L37.6481 134.936ZM39.7315 134.536C39.2666 135.222 38.3338 135.401 37.6481 134.936L34.8423 139.075C37.8136 141.089 41.8554 140.313 43.87 137.342L39.7315 134.536ZM42.4076 127.916C43.0933 128.381 43.2723 129.314 42.8074 129.999L46.9459 132.805C48.9604 129.834 48.1848 125.792 45.2135 123.778L42.4076 127.916ZM13.2685 109.972C13.7334 109.287 14.6662 109.108 15.3518 109.573L18.1577 105.434C15.1864 103.42 11.1445 104.195 9.13003 107.167L13.2685 109.972ZM6.05406 111.704C4.03954 114.675 4.81519 118.717 7.78651 120.731L10.5924 116.593C9.90667 116.128 9.72767 115.195 10.1926 114.509L6.05406 111.704Z" fill="#B03E9B"/>
</svg>
