<svg width="512" height="512" viewBox="0 0 512 512" fill="none" xmlns="http://www.w3.org/2000/svg">
<path opacity="0.99" fill-rule="evenodd" clip-rule="evenodd" d="M233.5 -0.5C248.5 -0.5 263.5 -0.5 278.5 -0.5C368.144 10.3879 435.644 54.7213 481 132.5C497.695 163.971 507.861 197.304 511.5 232.5C511.5 247.5 511.5 262.5 511.5 277.5C499.016 377.807 447.016 449.307 355.5 492C330.316 502.296 304.316 508.796 277.5 511.5C262.5 511.5 247.5 511.5 232.5 511.5C132.727 498.549 61.5605 446.549 19 355.5C8.86452 330.623 2.36452 304.957 -0.5 278.5C-0.5 263.167 -0.5 247.833 -0.5 232.5C9.30698 148.242 49.6403 83.0754 120.5 37C155.422 15.9704 193.088 3.4704 233.5 -0.5ZM221.5 172.5C237.529 172.199 253.529 172.699 269.5 174C277.767 175.268 282.267 180.101 283 188.5C283.167 191.833 283.333 195.167 283.5 198.5C282.496 215.493 282.329 232.493 283 249.5C283.25 252.754 284.25 255.754 286 258.5C288.627 260.988 291.46 261.155 294.5 259C303.747 249.656 311.914 239.489 319 228.5C327.187 213.626 334.687 198.459 341.5 183C342.833 182.333 344.167 181.667 345.5 181C366.167 180.333 386.833 180.333 407.5 181C413.653 182.465 415.82 186.298 414 192.5C410.984 201.843 406.65 210.509 401 218.5C389.667 233.833 378.333 249.167 367 264.5C362.146 270.791 361.813 277.124 366 283.5C381.101 297.596 395.101 312.596 408 328.5C411.715 333.096 414.215 338.262 415.5 344C413.757 350.075 409.757 353.741 403.5 355C386.833 355.667 370.167 355.667 353.5 355C346.836 354.333 340.836 352 335.5 348C325.136 337.971 315.136 327.637 305.5 317C301.445 312.865 296.778 311.865 291.5 314C289.951 315.214 288.785 316.714 288 318.5C285.281 328.43 282.948 338.43 281 348.5C278.937 351.453 276.104 353.286 272.5 354C238.547 357.678 208.547 348.678 182.5 327C161.243 306.079 143.41 282.579 129 256.5C117.533 235.234 106.867 213.567 97 191.5C95.7728 187.409 96.6061 183.909 99.5 181C103.838 180.537 108.171 180.037 112.5 179.5C126.152 180.261 139.819 180.761 153.5 181C157.837 182.339 161.337 184.839 164 188.5C173.25 212.345 185.584 234.345 201 254.5C204.116 257.457 207.616 259.79 211.5 261.5C213.697 261.152 215.53 260.152 217 258.5C218.158 254.203 219.158 249.869 220 245.5C220.667 231.5 220.667 217.5 220 203.5C218.976 193.475 213.476 187.642 203.5 186C202.643 185.311 201.977 184.478 201.5 183.5C202.592 180.906 204.259 178.739 206.5 177C211.324 174.46 216.324 172.96 221.5 172.5Z" fill="white"/>
</svg>
