<svg width="52" height="52" viewBox="0 0 52 52" fill="none" xmlns="http://www.w3.org/2000/svg">
<g clip-path="url(#clip0_132_20)">
<path opacity="0.993" fill-rule="evenodd" clip-rule="evenodd" d="M15.793 -0.0507812C22.5638 -0.0507812 29.3346 -0.0507812 36.1055 -0.0507812C38.6259 0.0358086 41.1312 0.357423 43.6211 0.914062C47.4974 1.94662 49.9518 4.40104 50.9844 8.27734C51.5336 10.7681 51.8552 13.2733 51.9492 15.793C51.9492 22.5638 51.9492 29.3346 51.9492 36.1055C51.8552 38.6251 51.5336 41.1304 50.9844 43.6211C49.9518 47.4974 47.4974 49.9518 43.6211 50.9844C41.1304 51.5336 38.6251 51.8552 36.1055 51.9492C29.3346 51.9492 22.5638 51.9492 15.793 51.9492C13.163 51.8654 10.5562 51.51 7.97266 50.8828C4.26542 49.7846 1.91255 47.3641 0.914062 43.6211C0.365831 41.1644 0.0442168 38.693 -0.0507812 36.207C-0.0507812 29.3685 -0.0507812 22.5299 -0.0507812 15.6914C0.0442168 13.2055 0.365831 10.734 0.914062 8.27734C1.94662 4.40104 4.40104 1.94662 8.27734 0.914062C10.7681 0.364847 13.2733 0.0432327 15.793 -0.0507812ZM10.207 16.1992C11.4939 16.1823 12.7804 16.1992 14.0664 16.25C14.7821 16.2879 15.2731 16.6434 15.5391 17.3164C16.6592 20.7421 18.2842 23.8905 20.4141 26.7617C20.8269 27.2977 21.3517 27.6701 21.9883 27.8789C22.1741 27.8509 22.3434 27.7831 22.4961 27.6758C22.6579 27.2889 22.7425 26.8827 22.75 26.457C22.8177 24.5273 22.8177 22.5977 22.75 20.668C22.6633 19.4116 22.1894 18.3283 21.3281 17.418C21.1848 16.7144 21.4725 16.3252 22.1914 16.25C24.1549 16.1823 26.1185 16.1823 28.082 16.25C28.8735 16.2973 29.229 16.7204 29.1484 17.5195C29.1823 20.2617 29.2162 23.0039 29.25 25.7461C29.501 26.2712 29.8902 26.3897 30.418 26.1016C31.3152 25.3769 32.1108 24.5475 32.8047 23.6133C34.1988 21.5704 35.3838 19.4037 36.3594 17.1133C36.6851 16.5524 37.176 16.2646 37.832 16.25C39.1185 16.1823 40.4049 16.1823 41.6914 16.25C42.5715 16.2491 42.927 16.6722 42.7578 17.5195C42.6118 18.0825 42.4086 18.6241 42.1484 19.1445C40.7855 21.6568 39.262 24.0604 37.5781 26.3555C37.2175 26.9564 37.2514 27.532 37.6797 28.082C39.5953 29.895 41.3218 31.8585 42.8594 33.9727C43.066 34.3809 43.2691 34.7872 43.4688 35.1914C43.706 35.953 43.4521 36.4439 42.707 36.6641C41.0076 36.7612 39.3148 36.7273 37.6289 36.5625C37.4935 36.4948 37.358 36.4271 37.2227 36.3594C35.8715 34.9065 34.4834 33.4846 33.0586 32.0938C32.5508 31.7213 32.043 31.349 31.5352 30.9766C30.8954 30.579 30.2184 30.4775 29.5039 30.6719C29.3819 30.7636 29.2972 30.882 29.25 31.0273C29.2162 32.483 29.1823 33.9388 29.1484 35.3945C29.1467 35.8895 28.9266 36.245 28.4883 36.4609C26.4442 36.9018 24.4468 36.7325 22.4961 35.9531C19.9731 34.8855 17.8234 33.3113 16.0469 31.2305C13.5245 28.0501 11.4932 24.5632 9.95312 20.7695C9.55402 19.7825 9.24933 18.7669 9.03906 17.7227C8.87998 16.7825 9.26931 16.2747 10.207 16.1992Z" fill="#B03E9B"/>
</g>
<defs>
<clipPath id="clip0_132_20">
<rect width="52" height="52" fill="white"/>
</clipPath>
</defs>
</svg>
